<svg width="45" height="45" viewBox="0 0 45 45" fill="none" xmlns="http://www.w3.org/2000/svg">
<path d="M31.7032 12.8482C29.9186 12.0293 28.0048 11.426 26.0039 11.0805C25.9674 11.0738 25.931 11.0905 25.9123 11.1238C25.6661 11.5616 25.3935 12.1327 25.2026 12.5815C23.0505 12.2593 20.9094 12.2593 18.8014 12.5815C18.6104 12.1227 18.3279 11.5616 18.0807 11.1238C18.0619 11.0916 18.0255 11.0749 17.9891 11.0805C15.9892 11.4249 14.0755 12.0282 12.2898 12.8482C12.2743 12.8549 12.261 12.866 12.2523 12.8804C8.62229 18.3035 7.62789 23.5933 8.11571 28.8175C8.11792 28.8431 8.13226 28.8675 8.15213 28.883C10.5471 30.6418 12.867 31.7096 15.1438 32.4173C15.1803 32.4284 15.2189 32.4151 15.2421 32.3851C15.7806 31.6496 16.2607 30.8741 16.6724 30.0585C16.6967 30.0108 16.6735 29.9541 16.6238 29.9352C15.8623 29.6463 15.1372 29.2941 14.4397 28.8942C14.3845 28.8619 14.3801 28.783 14.4309 28.7452C14.5776 28.6353 14.7245 28.5208 14.8646 28.4053C14.89 28.3842 14.9253 28.3797 14.9551 28.393C19.5375 30.4852 24.4985 30.4852 29.0268 28.393C29.0566 28.3786 29.0919 28.3831 29.1184 28.4042C29.2586 28.5197 29.4054 28.6353 29.5533 28.7452C29.604 28.783 29.6007 28.8619 29.5455 28.8942C28.848 29.3019 28.1229 29.6463 27.3603 29.9341C27.3106 29.953 27.2885 30.0108 27.3128 30.0585C27.7333 30.8729 28.2134 31.6485 28.742 32.384C28.7641 32.4151 28.8038 32.4284 28.8403 32.4173C31.1282 31.7096 33.4481 30.6418 35.843 28.883C35.864 28.8675 35.8772 28.8442 35.8794 28.8186C36.4633 22.7788 34.9016 17.5324 31.7396 12.8815C31.7319 12.866 31.7186 12.8549 31.7032 12.8482ZM17.3567 25.6365C15.9771 25.6365 14.8403 24.3699 14.8403 22.8144C14.8403 21.2589 15.955 19.9923 17.3567 19.9923C18.7694 19.9923 19.8951 21.27 19.873 22.8144C19.873 24.3699 18.7583 25.6365 17.3567 25.6365ZM26.6605 25.6365C25.281 25.6365 24.1442 24.3699 24.1442 22.8144C24.1442 21.2589 25.2589 19.9923 26.6605 19.9923C28.0732 19.9923 29.199 21.27 29.1769 22.8144C29.1769 24.3699 28.0732 25.6365 26.6605 25.6365Z" fill="white"/>
<rect x="0.5" y="0.5" width="44" height="44" rx="14.5" stroke="white"/>
</svg>
