<svg width="45" height="45" viewBox="0 0 45 45" fill="none" xmlns="http://www.w3.org/2000/svg">
<g clip-path="url(#clip0_139_92)">
<path fill-rule="evenodd" clip-rule="evenodd" d="M22.0001 10.5C19.1514 10.5015 16.396 11.5105 14.2267 13.3465C12.0575 15.1826 10.6158 17.726 10.1594 20.522C9.70306 23.318 10.2618 26.1842 11.7357 28.6082C13.2097 31.0321 15.5027 32.8558 18.2048 33.753C18.8009 33.8636 19.0255 33.4941 19.0255 33.18C19.0255 32.8658 19.0135 31.955 19.0096 30.9592C15.6713 31.6804 14.9659 29.5505 14.9659 29.5505C14.4214 28.1674 13.6345 27.8039 13.6345 27.8039C12.5456 27.065 13.716 27.0788 13.716 27.0788C14.9222 27.1637 15.556 28.3097 15.556 28.3097C16.6251 30.1333 18.3638 29.6058 19.0473 29.2976C19.1546 28.5251 19.4666 27.9995 19.8104 27.7012C17.1437 27.4008 14.3419 26.3774 14.3419 21.8054C14.3254 20.6197 14.7679 19.4731 15.5779 18.6027C15.4547 18.3024 15.0434 17.0892 15.6951 15.4414C15.6951 15.4414 16.7026 15.1214 18.9957 16.6644C20.9625 16.1296 23.0377 16.1296 25.0046 16.6644C27.2957 15.1214 28.3012 15.4414 28.3012 15.4414C28.9549 17.0853 28.5436 18.2984 28.4204 18.6027C29.233 19.4732 29.6764 20.6218 29.6584 21.8094C29.6584 26.3912 26.8506 27.4008 24.18 27.6952C24.6092 28.0667 24.9927 28.7918 24.9927 29.9061C24.9927 31.5026 24.9788 32.7868 24.9788 33.18C24.9788 33.4981 25.1954 33.8695 25.8034 33.753C28.5058 32.8557 30.7991 31.0317 32.273 28.6073C33.7469 26.183 34.3054 23.3163 33.8485 20.5201C33.3916 17.7238 31.9492 15.1804 29.7792 13.3446C27.6092 11.5089 24.8532 10.5005 22.0041 10.5H22.0001Z" fill="white"/>
<path d="M18.0278 29.9753C18.0278 30.0721 17.9166 30.1551 17.7735 30.157C17.6304 30.159 17.5132 30.08 17.5132 29.9832C17.5132 29.8864 17.6245 29.8034 17.7675 29.8014C17.9106 29.7994 18.0278 29.8765 18.0278 29.9753Z" fill="white"/>
<path d="M18.9419 29.8231C18.9598 29.9199 18.8604 30.0207 18.7174 30.0444C18.5743 30.0681 18.4491 30.0108 18.4312 29.916C18.4133 29.8212 18.5167 29.7184 18.6558 29.6927C18.7949 29.6671 18.924 29.7263 18.9419 29.8231Z" fill="white"/>
<path d="M17.0462 29.9081C17.0164 30.001 16.8812 30.0424 16.7461 30.0029C16.611 29.9634 16.5216 29.8528 16.5474 29.7579C16.5732 29.6631 16.7104 29.6196 16.8475 29.6631C16.9846 29.7066 17.072 29.8113 17.0462 29.9081Z" fill="white"/>
<path d="M16.1461 29.5208C16.0805 29.5939 15.9474 29.5742 15.8381 29.4754C15.7288 29.3766 15.703 29.2423 15.7686 29.1711C15.8341 29.1 15.9673 29.1198 16.0805 29.2166C16.1938 29.3134 16.2157 29.4497 16.1461 29.5208Z" fill="white"/>
<path d="M15.5044 28.857C15.4308 28.9084 15.3057 28.857 15.2361 28.7542C15.2169 28.7358 15.2016 28.7137 15.1911 28.6893C15.1807 28.6648 15.1753 28.6385 15.1753 28.612C15.1753 28.5854 15.1807 28.5591 15.1911 28.5347C15.2016 28.5103 15.2169 28.4882 15.2361 28.4697C15.3096 28.4203 15.4348 28.4697 15.5044 28.5705C15.5739 28.6713 15.5759 28.8056 15.5044 28.857Z" fill="white"/>
<path d="M15.0312 28.1714C14.9901 28.192 14.943 28.1978 14.898 28.1877C14.8531 28.1776 14.8131 28.1523 14.7848 28.1161C14.7073 28.0331 14.6914 27.9185 14.751 27.8671C14.8107 27.8157 14.918 27.8395 14.9955 27.9224C15.073 28.0054 15.0908 28.12 15.0312 28.1714Z" fill="white"/>
<path d="M14.5446 27.632C14.5187 27.6913 14.4233 27.7091 14.3459 27.6676C14.2684 27.6261 14.2107 27.549 14.2386 27.4878C14.2664 27.4265 14.3598 27.4107 14.4373 27.4522C14.5148 27.4937 14.5744 27.5727 14.5446 27.632Z" fill="white"/>
</g>
<rect x="0.5" y="0.5" width="44" height="44" rx="14.5" stroke="white"/>
<defs>
<clipPath id="clip0_139_92">
<rect width="24" height="24" fill="white" transform="translate(10 10)"/>
</clipPath>
</defs>
</svg>
