<svg viewBox="0 0 631 144" fill="none" xmlns="http://www.w3.org/2000/svg">
<path d="M83.716 57.8843C93.2284 64.0465 107.407 81.2813 97.7131 99.8137C90.3078 113.97 72.2406 117.547 57.4879 111.443C28.8135 99.5797 17.2154 76.4622 33.4527 43.9456C51.5522 7.69981 105.723 12.4253 117.009 42.2489C117.332 43.1032 116.042 43.7646 115.383 43.1324C111.539 39.4475 105.55 36.4037 97.2117 34.509C84.7689 31.6818 65.4843 45.3475 66.6295 63.1002C67.7073 79.8087 86.4267 83.0268 89.5796 75.01C91.7279 69.5477 88.5941 61.0444 83.716 57.8843ZM83.716 57.8843C72.2032 50.4261 34.5676 36.211 26.0572 71.178" stroke="white" stroke-width="6.52965"/>
<path d="M32.335 92.8995L34.3846 117.288C34.5708 119.503 36.8675 120.888 38.9135 120.02L57.8453 111.985" stroke="white" stroke-width="6.52965" stroke-linecap="round"/>
<path d="M163.995 56.5326H174.638V104.526L143.034 76.5133V102.24H132.456V54.2472L163.995 82.2594V56.5326ZM186.584 81.4106L183.254 74.8156C184.951 73.9885 186.997 73.205 189.391 72.465C191.786 71.7249 194.398 71.3549 197.227 71.3549C199.882 71.3549 202.255 71.7467 204.344 72.5303C206.434 73.2703 208.088 74.3803 209.307 75.8604C210.526 77.2969 211.135 79.0381 211.135 81.0841V102.24H201.667V98.0612C200.753 99.6283 199.382 100.825 197.554 101.653C195.769 102.48 193.832 102.893 191.742 102.893C189.783 102.893 187.998 102.545 186.388 101.848C184.777 101.108 183.471 100.042 182.47 98.6489C181.512 97.2123 181.033 95.4493 181.033 93.3598C181.033 90.4868 182.056 88.2232 184.102 86.569C186.148 84.8713 189.043 84.0224 192.787 84.0224C194.659 84.0224 196.335 84.2183 197.815 84.6101C199.338 84.9584 200.622 85.4154 201.667 85.9813V83.3042C201.667 80.3441 199.774 78.864 195.986 78.864C194.637 78.864 193.309 79.0164 192.003 79.3211C190.741 79.6258 189.609 79.9958 188.608 80.4311C187.65 80.8229 186.975 81.1494 186.584 81.4106ZM190.959 92.8375C190.959 94.0128 191.372 94.927 192.199 95.5799C193.026 96.1894 194.049 96.4941 195.268 96.4941C196.879 96.4941 198.315 96.0152 199.578 95.0576C200.84 94.0563 201.537 92.5763 201.667 90.6174C199.882 89.8338 197.945 89.4421 195.856 89.4421C194.115 89.4421 192.852 89.7468 192.069 90.3562C191.329 90.9221 190.959 91.7492 190.959 92.8375ZM228.835 90.4868C228.835 92.228 229.161 93.5993 229.814 94.6005C230.467 95.5582 231.599 96.037 233.209 96.037C234.777 96.037 236.039 95.5582 236.997 94.6005C237.954 93.6428 238.433 92.2716 238.433 90.4868V72.2038H248.293V102.24H238.433V97.7347C237.519 99.3889 236.322 100.673 234.842 101.587C233.362 102.501 231.512 102.958 229.292 102.958C225.548 102.958 222.806 101.957 221.064 99.9548C219.367 97.9088 218.518 95.1011 218.518 91.5315V72.2038H228.835V90.4868ZM252.55 72.2038H257.839V61.7563H267.307V72.2038H272.661V80.3658H267.307V102.24H257.839V80.3658H252.55V72.2038ZM276.276 60.9075C276.276 59.3404 276.842 58.078 277.974 57.1203C279.106 56.1191 280.455 55.6185 282.022 55.6185C283.633 55.6185 284.982 56.1191 286.071 57.1203C287.202 58.078 287.768 59.3404 287.768 60.9075C287.768 62.4746 287.202 63.7588 286.071 64.76C284.982 65.7612 283.633 66.2618 282.022 66.2618C280.455 66.2618 279.106 65.7612 277.974 64.76C276.842 63.7588 276.276 62.4746 276.276 60.9075ZM277.256 72.2038H286.789V102.24H277.256V72.2038ZM294.91 51.3089H304.835V102.24H294.91V51.3089ZM322.826 90.4868C322.826 92.228 323.152 93.5993 323.805 94.6005C324.458 95.5582 325.59 96.037 327.201 96.037C328.768 96.037 330.03 95.5582 330.988 94.6005C331.946 93.6428 332.425 92.2716 332.425 90.4868V72.2038H342.284V102.24H332.425V97.7347C331.51 99.3889 330.313 100.673 328.833 101.587C327.353 102.501 325.503 102.958 323.283 102.958C319.539 102.958 316.797 101.957 315.056 99.9548C313.358 97.9088 312.509 95.1011 312.509 91.5315V72.2038H322.826V90.4868ZM351.7 91.3357C353.963 93.251 355.922 94.5569 357.576 95.2534C359.231 95.9064 360.58 96.2329 361.625 96.2329C362.582 96.2329 363.301 96.0152 363.78 95.5799C364.302 95.1446 364.563 94.5787 364.563 93.8822C364.563 92.9245 364.084 92.1627 363.127 91.5968C362.212 90.9874 360.558 90.2909 358.164 89.5074C356.728 89.0285 355.356 88.4191 354.05 87.679C352.788 86.939 351.743 85.9596 350.916 84.7407C350.089 83.5218 349.676 81.9547 349.676 80.0394C349.676 77.2969 350.72 75.2074 352.81 73.7709C354.943 72.2908 357.642 71.5508 360.907 71.5508C363.475 71.5508 365.826 71.9861 367.959 72.8567C370.092 73.6838 372.029 74.7286 373.77 75.991L370.244 82.39C369.025 81.2147 367.589 80.257 365.934 79.517C364.324 78.7334 362.844 78.3416 361.494 78.3416C359.666 78.3416 358.752 78.9728 358.752 80.2352C358.752 81.2365 359.339 81.9983 360.515 82.5206C361.734 82.9995 363.453 83.6524 365.673 84.4795C367.24 85.0454 368.677 85.6984 369.983 86.4384C371.332 87.1784 372.399 88.1144 373.182 89.2462C374.009 90.378 374.423 91.8798 374.423 93.7516C374.423 96.9729 373.422 99.4107 371.419 101.065C369.46 102.675 366.696 103.481 363.127 103.481C359.818 103.481 356.902 102.937 354.377 101.848C351.852 100.76 349.588 99.4324 347.586 97.8653L351.7 91.3357ZM400.402 56.5326H428.153V66.0006H410.98V75.0115H427.5V83.8918H410.98V102.24H400.402V56.5326ZM434.926 60.9075C434.926 59.3404 435.492 58.078 436.624 57.1203C437.756 56.1191 439.105 55.6185 440.672 55.6185C442.283 55.6185 443.632 56.1191 444.721 57.1203C445.853 58.078 446.418 59.3404 446.418 60.9075C446.418 62.4746 445.853 63.7588 444.721 64.76C443.632 65.7612 442.283 66.2618 440.672 66.2618C439.105 66.2618 437.756 65.7612 436.624 64.76C435.492 63.7588 434.926 62.4746 434.926 60.9075ZM435.906 72.2038H445.439V102.24H435.906V72.2038ZM473.083 83.9571C473.083 82.1724 472.735 80.8011 472.039 79.8435C471.386 78.8858 470.276 78.4069 468.709 78.4069C467.098 78.4069 465.814 78.8858 464.856 79.8435C463.942 80.8011 463.485 82.1724 463.485 83.9571V102.24H453.56V72.2038H463.485V76.7092C464.355 75.0551 465.531 73.7709 467.011 72.8567C468.534 71.9426 470.406 71.4855 472.626 71.4855C476.37 71.4855 479.091 72.4867 480.788 74.4891C482.486 76.4916 483.335 79.2993 483.335 82.9124V102.24H473.083V83.9571ZM494.383 81.4106L491.053 74.8156C492.75 73.9885 494.796 73.205 497.191 72.465C499.585 71.7249 502.197 71.3549 505.026 71.3549C507.682 71.3549 510.054 71.7467 512.143 72.5303C514.233 73.2703 515.887 74.3803 517.106 75.8604C518.325 77.2969 518.934 79.0381 518.934 81.0841V102.24H509.466V98.0612C508.552 99.6283 507.181 100.825 505.353 101.653C503.568 102.48 501.631 102.893 499.541 102.893C497.582 102.893 495.798 102.545 494.187 101.848C492.576 101.108 491.27 100.042 490.269 98.6489C489.311 97.2123 488.833 95.4493 488.833 93.3598C488.833 90.4868 489.856 88.2232 491.902 86.569C493.948 84.8713 496.842 84.0224 500.586 84.0224C502.458 84.0224 504.134 84.2183 505.614 84.6101C507.137 84.9584 508.422 85.4154 509.466 85.9813V83.3042C509.466 80.3441 507.573 78.864 503.786 78.864C502.436 78.864 501.108 79.0164 499.802 79.3211C498.54 79.6258 497.408 79.9958 496.407 80.4311C495.449 80.8229 494.775 81.1494 494.383 81.4106ZM498.758 92.8375C498.758 94.0128 499.171 94.927 499.998 95.5799C500.825 96.1894 501.848 96.4941 503.067 96.4941C504.678 96.4941 506.114 96.0152 507.377 95.0576C508.639 94.0563 509.336 92.5763 509.466 90.6174C507.682 89.8338 505.744 89.4421 503.655 89.4421C501.914 89.4421 500.651 89.7468 499.868 90.3562C499.128 90.9221 498.758 91.7492 498.758 92.8375ZM545.841 83.9571C545.841 82.1724 545.492 80.8011 544.796 79.8435C544.143 78.8858 543.033 78.4069 541.466 78.4069C539.855 78.4069 538.571 78.8858 537.613 79.8435C536.699 80.8011 536.242 82.1724 536.242 83.9571V102.24H526.317V72.2038H536.242V76.7092C537.113 75.0551 538.288 73.7709 539.768 72.8567C541.292 71.9426 543.163 71.4855 545.383 71.4855C549.127 71.4855 551.848 72.4867 553.546 74.4891C555.243 76.4916 556.092 79.2993 556.092 82.9124V102.24H545.841V83.9571ZM572.168 87.222C572.168 89.6597 572.93 91.5751 574.453 92.9681C576.02 94.3611 577.914 95.0576 580.134 95.0576C581.962 95.0576 583.66 94.6658 585.227 93.8822C586.838 93.0987 588.1 91.9886 589.014 90.5521V100.151C587.97 101.021 586.664 101.696 585.097 102.175C583.529 102.654 581.614 102.893 579.35 102.893C575.999 102.893 573.017 102.262 570.405 101C567.793 99.6936 565.725 97.8653 564.202 95.5146C562.722 93.164 561.982 90.3997 561.982 87.222C561.982 84.0442 562.722 81.28 564.202 78.9293C565.725 76.5786 567.793 74.7721 570.405 73.5097C573.017 72.2038 575.999 71.5508 579.35 71.5508C581.614 71.5508 583.529 71.812 585.097 72.3344C586.664 72.8132 587.97 73.4226 589.014 74.1627V83.8266C588.1 82.39 586.794 81.3018 585.097 80.5617C583.399 79.7782 581.745 79.3864 580.134 79.3864C577.914 79.3864 576.02 80.1482 574.453 81.6718C572.93 83.1518 572.168 85.0019 572.168 87.222ZM611.42 102.893C607.938 102.893 604.912 102.262 602.344 101C599.776 99.6936 597.795 97.8653 596.402 95.5146C595.053 93.164 594.378 90.3997 594.378 87.222C594.378 82.39 595.88 78.5811 598.883 75.7951C601.887 72.9656 606.022 71.5508 611.29 71.5508C616.47 71.5508 620.453 72.8785 623.239 75.5339C626.068 78.1893 627.483 81.933 627.483 86.7649C627.483 87.2437 627.461 87.7226 627.418 88.2014C627.418 88.6367 627.396 89.0067 627.353 89.3115H604.433C604.738 91.4009 605.478 93.0116 606.654 94.1434C607.829 95.2317 609.374 95.7758 611.29 95.7758C614.772 95.7758 617.253 94.4699 618.733 91.858L627.548 94.0128C624.371 99.933 618.995 102.893 611.42 102.893ZM611.094 78.1458C607.524 78.1458 605.369 80.0394 604.629 83.8266H616.905C616.775 82.0853 616.187 80.7141 615.142 79.7129C614.097 78.6681 612.748 78.1458 611.094 78.1458Z" fill="white"/>
</svg>
