<svg width="45" height="45" viewBox="0 0 45 45" fill="none" xmlns="http://www.w3.org/2000/svg">
<path d="M16.8085 34C27.372 34 33.1513 25.1503 33.1513 17.4782C33.1513 17.2294 33.1459 16.9751 33.1349 16.7263C34.2592 15.9044 35.2294 14.8863 36 13.7198C34.9529 14.1908 33.8412 14.4984 32.7029 14.6321C33.9015 13.9057 34.799 12.7647 35.2289 11.4205C34.1013 12.096 32.8682 12.5726 31.5823 12.8297C30.716 11.8991 29.5705 11.2829 28.323 11.0764C27.0754 10.8699 25.7954 11.0847 24.6807 11.6874C23.566 12.2902 22.6788 13.2474 22.1562 14.411C21.6335 15.5746 21.5047 16.8799 21.7895 18.1251C19.5062 18.0092 17.2726 17.4096 15.2333 16.3651C13.194 15.3206 11.3946 13.8545 9.9518 12.0618C9.21847 13.34 8.99407 14.8525 9.3242 16.292C9.65434 17.7314 10.5142 18.9898 11.7291 19.8113C10.8171 19.782 9.92497 19.5338 9.12656 19.087V19.1589C9.12575 20.5003 9.58445 21.8005 10.4247 22.8387C11.2649 23.8768 12.4349 24.5887 13.7356 24.8534C12.8907 25.0871 12.004 25.1212 11.144 24.9529C11.511 26.1065 12.2252 27.1155 13.1867 27.839C14.1483 28.5625 15.3093 28.9645 16.5077 28.9888C14.4732 30.6045 11.9599 31.4809 9.37266 31.4767C8.91383 31.476 8.45547 31.4476 8 31.3916C10.6283 33.0963 13.6858 34.0016 16.8085 34Z" fill="white"/>
<rect x="0.5" y="0.5" width="44" height="44" rx="14.5" stroke="white"/>
</svg>
